<mxfile host="Electron" agent="Mozilla/5.0 (Windows NT 10.0; Win64; x64) AppleWebKit/537.36 (KHTML, like Gecko) draw.io/26.2.2 Chrome/134.0.6998.178 Electron/35.1.2 Safari/537.36" version="26.2.2">
  <diagram id="_hXymrpGF0wFrBP044Yz" name="Page-1">
    <mxGraphModel dx="1044" dy="626" grid="1" gridSize="10" guides="1" tooltips="1" connect="1" arrows="1" fold="1" page="1" pageScale="1" pageWidth="827" pageHeight="1169" math="0" shadow="0">
      <root>
        <mxCell id="0" />
        <mxCell id="1" parent="0" />
        <mxCell id="FdiNI-0ySeMm-yAumP3X-1" value="" style="endArrow=none;html=1;rounded=0;exitX=0.5;exitY=0;exitDx=0;exitDy=0;entryX=0.5;entryY=0;entryDx=0;entryDy=0;startFill=0;" parent="1" source="FdiNI-0ySeMm-yAumP3X-7" target="FdiNI-0ySeMm-yAumP3X-2" edge="1">
          <mxGeometry width="50" height="50" relative="1" as="geometry">
            <mxPoint x="80" y="270" as="sourcePoint" />
            <mxPoint x="100" y="240" as="targetPoint" />
            <Array as="points">
              <mxPoint x="60" y="120" />
              <mxPoint x="160" y="120" />
            </Array>
          </mxGeometry>
        </mxCell>
        <mxCell id="FdiNI-0ySeMm-yAumP3X-2" value="&lt;u&gt;KLIENT_ID&lt;/u&gt;" style="whiteSpace=wrap;html=1;align=center;fillColor=#1ba1e2;fontColor=#ffffff;strokeColor=#006EAF;" parent="1" vertex="1">
          <mxGeometry x="110" y="140" width="100" height="40" as="geometry" />
        </mxCell>
        <mxCell id="FdiNI-0ySeMm-yAumP3X-14" style="edgeStyle=orthogonalEdgeStyle;rounded=0;orthogonalLoop=1;jettySize=auto;html=1;" parent="1" target="FdiNI-0ySeMm-yAumP3X-3" edge="1">
          <mxGeometry relative="1" as="geometry">
            <mxPoint x="260" y="100" as="sourcePoint" />
          </mxGeometry>
        </mxCell>
        <mxCell id="FdiNI-0ySeMm-yAumP3X-20" style="edgeStyle=orthogonalEdgeStyle;rounded=0;orthogonalLoop=1;jettySize=auto;html=1;" parent="1" target="FdiNI-0ySeMm-yAumP3X-3" edge="1">
          <mxGeometry relative="1" as="geometry">
            <mxPoint x="260" y="210" as="sourcePoint" />
          </mxGeometry>
        </mxCell>
        <mxCell id="FdiNI-0ySeMm-yAumP3X-3" value="KLIENTNAAM" style="whiteSpace=wrap;html=1;align=center;" parent="1" vertex="1">
          <mxGeometry x="210" y="140" width="100" height="40" as="geometry" />
        </mxCell>
        <mxCell id="FdiNI-0ySeMm-yAumP3X-15" style="edgeStyle=orthogonalEdgeStyle;rounded=0;orthogonalLoop=1;jettySize=auto;html=1;" parent="1" target="FdiNI-0ySeMm-yAumP3X-4" edge="1">
          <mxGeometry relative="1" as="geometry">
            <mxPoint x="360" y="100" as="sourcePoint" />
          </mxGeometry>
        </mxCell>
        <mxCell id="FdiNI-0ySeMm-yAumP3X-21" style="edgeStyle=orthogonalEdgeStyle;rounded=0;orthogonalLoop=1;jettySize=auto;html=1;" parent="1" target="FdiNI-0ySeMm-yAumP3X-4" edge="1">
          <mxGeometry relative="1" as="geometry">
            <mxPoint x="360" y="210" as="sourcePoint" />
          </mxGeometry>
        </mxCell>
        <mxCell id="FdiNI-0ySeMm-yAumP3X-4" value="KLIENTTEL" style="whiteSpace=wrap;html=1;align=center;" parent="1" vertex="1">
          <mxGeometry x="310" y="140" width="100" height="40" as="geometry" />
        </mxCell>
        <mxCell id="FdiNI-0ySeMm-yAumP3X-16" style="edgeStyle=orthogonalEdgeStyle;rounded=0;orthogonalLoop=1;jettySize=auto;html=1;" parent="1" target="FdiNI-0ySeMm-yAumP3X-5" edge="1">
          <mxGeometry relative="1" as="geometry">
            <mxPoint x="460.0000000000001" y="100" as="sourcePoint" />
          </mxGeometry>
        </mxCell>
        <mxCell id="FdiNI-0ySeMm-yAumP3X-24" style="edgeStyle=orthogonalEdgeStyle;rounded=0;orthogonalLoop=1;jettySize=auto;html=1;" parent="1" target="FdiNI-0ySeMm-yAumP3X-5" edge="1">
          <mxGeometry relative="1" as="geometry">
            <mxPoint x="460.0000000000001" y="230" as="sourcePoint" />
          </mxGeometry>
        </mxCell>
        <mxCell id="FdiNI-0ySeMm-yAumP3X-5" value="DATUM" style="whiteSpace=wrap;html=1;align=center;" parent="1" vertex="1">
          <mxGeometry x="410" y="140" width="100" height="40" as="geometry" />
        </mxCell>
        <mxCell id="FdiNI-0ySeMm-yAumP3X-17" style="edgeStyle=orthogonalEdgeStyle;rounded=0;orthogonalLoop=1;jettySize=auto;html=1;" parent="1" target="FdiNI-0ySeMm-yAumP3X-6" edge="1">
          <mxGeometry relative="1" as="geometry">
            <mxPoint x="560" y="100" as="sourcePoint" />
          </mxGeometry>
        </mxCell>
        <mxCell id="FdiNI-0ySeMm-yAumP3X-31" style="edgeStyle=orthogonalEdgeStyle;rounded=0;orthogonalLoop=1;jettySize=auto;html=1;" parent="1" target="FdiNI-0ySeMm-yAumP3X-6" edge="1">
          <mxGeometry relative="1" as="geometry">
            <mxPoint x="660" y="220" as="sourcePoint" />
          </mxGeometry>
        </mxCell>
        <mxCell id="FdiNI-0ySeMm-yAumP3X-6" value="HOEVEELHEID" style="whiteSpace=wrap;html=1;align=center;" parent="1" vertex="1">
          <mxGeometry x="610" y="140" width="100" height="40" as="geometry" />
        </mxCell>
        <mxCell id="FdiNI-0ySeMm-yAumP3X-7" value="&lt;u&gt;BESTELLING_ID&lt;/u&gt;" style="whiteSpace=wrap;html=1;align=center;fillColor=#1ba1e2;fontColor=#ffffff;strokeColor=#006EAF;" parent="1" vertex="1">
          <mxGeometry x="10" y="140" width="100" height="40" as="geometry" />
        </mxCell>
        <mxCell id="FdiNI-0ySeMm-yAumP3X-18" style="edgeStyle=orthogonalEdgeStyle;rounded=0;orthogonalLoop=1;jettySize=auto;html=1;" parent="1" target="FdiNI-0ySeMm-yAumP3X-8" edge="1">
          <mxGeometry relative="1" as="geometry">
            <mxPoint x="660" y="100" as="sourcePoint" />
          </mxGeometry>
        </mxCell>
        <mxCell id="FdiNI-0ySeMm-yAumP3X-19" style="edgeStyle=orthogonalEdgeStyle;rounded=0;orthogonalLoop=1;jettySize=auto;html=1;" parent="1" target="FdiNI-0ySeMm-yAumP3X-9" edge="1">
          <mxGeometry relative="1" as="geometry">
            <mxPoint x="760" y="100" as="sourcePoint" />
          </mxGeometry>
        </mxCell>
        <mxCell id="FdiNI-0ySeMm-yAumP3X-9" value="PRODUKNAAM" style="whiteSpace=wrap;html=1;align=center;" parent="1" vertex="1">
          <mxGeometry x="710" y="140" width="100" height="40" as="geometry" />
        </mxCell>
        <mxCell id="FdiNI-0ySeMm-yAumP3X-11" value="" style="endArrow=none;html=1;rounded=0;exitX=0.5;exitY=1;exitDx=0;exitDy=0;startFill=0;" parent="1" source="FdiNI-0ySeMm-yAumP3X-2" edge="1">
          <mxGeometry width="50" height="50" relative="1" as="geometry">
            <mxPoint x="90" y="280" as="sourcePoint" />
            <mxPoint x="360" y="210" as="targetPoint" />
            <Array as="points">
              <mxPoint x="160" y="210" />
            </Array>
          </mxGeometry>
        </mxCell>
        <mxCell id="FdiNI-0ySeMm-yAumP3X-22" value="P" style="edgeLabel;html=1;align=center;verticalAlign=middle;resizable=0;points=[];" parent="FdiNI-0ySeMm-yAumP3X-11" vertex="1" connectable="0">
          <mxGeometry x="-0.5607" y="-1" relative="1" as="geometry">
            <mxPoint as="offset" />
          </mxGeometry>
        </mxCell>
        <mxCell id="FdiNI-0ySeMm-yAumP3X-12" value="" style="endArrow=none;html=1;rounded=0;exitX=0.5;exitY=1;exitDx=0;exitDy=0;startFill=0;" parent="1" source="FdiNI-0ySeMm-yAumP3X-7" edge="1">
          <mxGeometry width="50" height="50" relative="1" as="geometry">
            <mxPoint x="100" y="290" as="sourcePoint" />
            <mxPoint x="460" y="230" as="targetPoint" />
            <Array as="points">
              <mxPoint x="60" y="230" />
            </Array>
          </mxGeometry>
        </mxCell>
        <mxCell id="FdiNI-0ySeMm-yAumP3X-28" value="P" style="edgeLabel;html=1;align=center;verticalAlign=middle;resizable=0;points=[];" parent="FdiNI-0ySeMm-yAumP3X-12" vertex="1" connectable="0">
          <mxGeometry x="-0.7456" y="1" relative="1" as="geometry">
            <mxPoint as="offset" />
          </mxGeometry>
        </mxCell>
        <mxCell id="FdiNI-0ySeMm-yAumP3X-13" value="" style="endArrow=none;html=1;rounded=0;startFill=0;" parent="1" edge="1">
          <mxGeometry width="50" height="50" relative="1" as="geometry">
            <mxPoint x="110" y="120" as="sourcePoint" />
            <mxPoint x="760" y="100" as="targetPoint" />
            <Array as="points">
              <mxPoint x="110" y="100" />
            </Array>
          </mxGeometry>
        </mxCell>
        <mxCell id="FdiNI-0ySeMm-yAumP3X-26" value="" style="endArrow=classic;html=1;rounded=0;exitX=0.5;exitY=1;exitDx=0;exitDy=0;entryX=0.5;entryY=1;entryDx=0;entryDy=0;" parent="1" source="FdiNI-0ySeMm-yAumP3X-8" target="FdiNI-0ySeMm-yAumP3X-9" edge="1">
          <mxGeometry width="50" height="50" relative="1" as="geometry">
            <mxPoint x="660" y="210" as="sourcePoint" />
            <mxPoint x="760" y="200" as="targetPoint" />
            <Array as="points">
              <mxPoint x="560" y="220" />
              <mxPoint x="660" y="220" />
              <mxPoint x="760" y="220" />
            </Array>
          </mxGeometry>
        </mxCell>
        <mxCell id="FdiNI-0ySeMm-yAumP3X-27" value="T" style="edgeLabel;html=1;align=center;verticalAlign=middle;resizable=0;points=[];" parent="FdiNI-0ySeMm-yAumP3X-26" vertex="1" connectable="0">
          <mxGeometry x="-0.3249" y="-1" relative="1" as="geometry">
            <mxPoint as="offset" />
          </mxGeometry>
        </mxCell>
        <mxCell id="FdiNI-0ySeMm-yAumP3X-29" value="1NF:" style="text;html=1;align=center;verticalAlign=middle;resizable=0;points=[];autosize=1;strokeColor=none;fillColor=none;" parent="1" vertex="1">
          <mxGeometry x="15" y="68" width="50" height="30" as="geometry" />
        </mxCell>
        <mxCell id="FdiNI-0ySeMm-yAumP3X-8" value="PRODUK_ID" style="whiteSpace=wrap;html=1;align=center;" parent="1" vertex="1">
          <mxGeometry x="510" y="140" width="100" height="40" as="geometry" />
        </mxCell>
        <mxCell id="FdiNI-0ySeMm-yAumP3X-32" value="1NF(&lt;u&gt;BESTELLING_ID&lt;/u&gt;,&amp;nbsp;&lt;u&gt;KLIENT_ID&lt;/u&gt;, KLIENTNAAM, KLIENTTEL, DATUM, PRODUK_ID, PRODUKNAAM, HOEVEELHEID)" style="text;html=1;align=center;verticalAlign=middle;resizable=0;points=[];autosize=1;strokeColor=none;fillColor=none;" parent="1" vertex="1">
          <mxGeometry y="238" width="680" height="30" as="geometry" />
        </mxCell>
        <mxCell id="FdiNI-0ySeMm-yAumP3X-33" value="GEDEELTELIKE AFHANKLIKHEDE:" style="text;html=1;align=center;verticalAlign=middle;resizable=0;points=[];autosize=1;strokeColor=none;fillColor=none;" parent="1" vertex="1">
          <mxGeometry y="280" width="220" height="30" as="geometry" />
        </mxCell>
        <mxCell id="FdiNI-0ySeMm-yAumP3X-34" value="(BESTELLING_ID =&amp;gt; DATUM)" style="text;html=1;align=center;verticalAlign=middle;resizable=0;points=[];autosize=1;strokeColor=none;fillColor=none;" parent="1" vertex="1">
          <mxGeometry x="220" y="280" width="190" height="30" as="geometry" />
        </mxCell>
        <mxCell id="FdiNI-0ySeMm-yAumP3X-35" value="(KLIENT_ID =&amp;gt; KLIENTNAAM, KLIENTTEL)" style="text;html=1;align=center;verticalAlign=middle;resizable=0;points=[];autosize=1;strokeColor=none;fillColor=none;" parent="1" vertex="1">
          <mxGeometry x="220" y="318" width="260" height="30" as="geometry" />
        </mxCell>
        <mxCell id="FdiNI-0ySeMm-yAumP3X-36" value="OORGANKLIKKE AFHANKLIKHEDE:" style="text;html=1;align=center;verticalAlign=middle;resizable=0;points=[];autosize=1;strokeColor=none;fillColor=none;" parent="1" vertex="1">
          <mxGeometry x="15" y="358" width="220" height="30" as="geometry" />
        </mxCell>
        <mxCell id="FdiNI-0ySeMm-yAumP3X-37" value="(PRODUK_ID =&amp;gt; PRODUKNAAM, HOEVEELHEID)" style="text;html=1;align=center;verticalAlign=middle;resizable=0;points=[];autosize=1;strokeColor=none;fillColor=none;" parent="1" vertex="1">
          <mxGeometry x="235" y="358" width="300" height="30" as="geometry" />
        </mxCell>
        <mxCell id="FdiNI-0ySeMm-yAumP3X-39" value="&lt;u&gt;KLIENT_ID&lt;/u&gt;" style="whiteSpace=wrap;html=1;align=center;fillColor=#1ba1e2;fontColor=#ffffff;strokeColor=#006EAF;" parent="1" vertex="1">
          <mxGeometry x="20" y="440" width="100" height="40" as="geometry" />
        </mxCell>
        <mxCell id="FdiNI-0ySeMm-yAumP3X-48" style="edgeStyle=orthogonalEdgeStyle;rounded=0;orthogonalLoop=1;jettySize=auto;html=1;" parent="1" target="FdiNI-0ySeMm-yAumP3X-41" edge="1">
          <mxGeometry relative="1" as="geometry">
            <mxPoint x="170.0000000000001" y="410" as="sourcePoint" />
          </mxGeometry>
        </mxCell>
        <mxCell id="FdiNI-0ySeMm-yAumP3X-41" value="KLIENTNAAM" style="whiteSpace=wrap;html=1;align=center;" parent="1" vertex="1">
          <mxGeometry x="120" y="440" width="100" height="40" as="geometry" />
        </mxCell>
        <mxCell id="FdiNI-0ySeMm-yAumP3X-49" style="edgeStyle=orthogonalEdgeStyle;rounded=0;orthogonalLoop=1;jettySize=auto;html=1;" parent="1" target="FdiNI-0ySeMm-yAumP3X-43" edge="1">
          <mxGeometry relative="1" as="geometry">
            <mxPoint x="270" y="410" as="sourcePoint" />
          </mxGeometry>
        </mxCell>
        <mxCell id="FdiNI-0ySeMm-yAumP3X-43" value="KLIENTTEL" style="whiteSpace=wrap;html=1;align=center;" parent="1" vertex="1">
          <mxGeometry x="220" y="440" width="100" height="40" as="geometry" />
        </mxCell>
        <mxCell id="FdiNI-0ySeMm-yAumP3X-44" value="" style="endArrow=none;html=1;rounded=0;exitX=0.5;exitY=0;exitDx=0;exitDy=0;startFill=0;" parent="1" source="FdiNI-0ySeMm-yAumP3X-39" edge="1">
          <mxGeometry width="50" height="50" relative="1" as="geometry">
            <mxPoint y="580" as="sourcePoint" />
            <mxPoint x="270" y="410" as="targetPoint" />
            <Array as="points">
              <mxPoint x="70" y="410" />
            </Array>
          </mxGeometry>
        </mxCell>
        <mxCell id="FdiNI-0ySeMm-yAumP3X-46" value="2NF:" style="text;html=1;align=center;verticalAlign=middle;resizable=0;points=[];autosize=1;strokeColor=none;fillColor=none;" parent="1" vertex="1">
          <mxGeometry y="398" width="50" height="30" as="geometry" />
        </mxCell>
        <mxCell id="FdiNI-0ySeMm-yAumP3X-50" value="KLIENT(&lt;u&gt;KLIENT_ID&lt;/u&gt;, KLIENTNAAM, KLIENTTEL)" style="text;html=1;align=center;verticalAlign=middle;resizable=0;points=[];autosize=1;strokeColor=none;fillColor=none;" parent="1" vertex="1">
          <mxGeometry x="320" y="440" width="290" height="30" as="geometry" />
        </mxCell>
        <mxCell id="FdiNI-0ySeMm-yAumP3X-55" style="edgeStyle=orthogonalEdgeStyle;rounded=0;orthogonalLoop=1;jettySize=auto;html=1;" parent="1" target="FdiNI-0ySeMm-yAumP3X-51" edge="1">
          <mxGeometry relative="1" as="geometry">
            <mxPoint x="170.0000000000001" y="490" as="sourcePoint" />
          </mxGeometry>
        </mxCell>
        <mxCell id="FdiNI-0ySeMm-yAumP3X-51" value="DATUM" style="whiteSpace=wrap;html=1;align=center;" parent="1" vertex="1">
          <mxGeometry x="120" y="520" width="100" height="40" as="geometry" />
        </mxCell>
        <mxCell id="FdiNI-0ySeMm-yAumP3X-52" value="&lt;u&gt;BESTELLING_ID&lt;/u&gt;" style="whiteSpace=wrap;html=1;align=center;fillColor=#1ba1e2;fontColor=#ffffff;strokeColor=#006EAF;" parent="1" vertex="1">
          <mxGeometry x="20" y="520" width="100" height="40" as="geometry" />
        </mxCell>
        <mxCell id="FdiNI-0ySeMm-yAumP3X-54" value="" style="endArrow=none;html=1;rounded=0;exitX=0.5;exitY=0;exitDx=0;exitDy=0;startFill=0;" parent="1" edge="1">
          <mxGeometry width="50" height="50" relative="1" as="geometry">
            <mxPoint x="70" y="520" as="sourcePoint" />
            <mxPoint x="170" y="490" as="targetPoint" />
            <Array as="points">
              <mxPoint x="70" y="490" />
            </Array>
          </mxGeometry>
        </mxCell>
        <mxCell id="FdiNI-0ySeMm-yAumP3X-56" value="BESTELLING(&lt;u&gt;BESTELLING_ID&lt;/u&gt;, DATUM)" style="text;html=1;align=center;verticalAlign=middle;resizable=0;points=[];autosize=1;strokeColor=none;fillColor=none;" parent="1" vertex="1">
          <mxGeometry x="235" y="525" width="250" height="30" as="geometry" />
        </mxCell>
        <mxCell id="FdiNI-0ySeMm-yAumP3X-61" style="edgeStyle=orthogonalEdgeStyle;rounded=0;orthogonalLoop=1;jettySize=auto;html=1;" parent="1" target="FdiNI-0ySeMm-yAumP3X-57" edge="1">
          <mxGeometry relative="1" as="geometry">
            <mxPoint x="170.0000000000001" y="570" as="sourcePoint" />
          </mxGeometry>
        </mxCell>
        <mxCell id="FdiNI-0ySeMm-yAumP3X-57" value="HOEVEELHEID" style="whiteSpace=wrap;html=1;align=center;" parent="1" vertex="1">
          <mxGeometry x="300" y="600" width="100" height="40" as="geometry" />
        </mxCell>
        <mxCell id="FdiNI-0ySeMm-yAumP3X-62" style="edgeStyle=orthogonalEdgeStyle;rounded=0;orthogonalLoop=1;jettySize=auto;html=1;" parent="1" target="FdiNI-0ySeMm-yAumP3X-58" edge="1">
          <mxGeometry relative="1" as="geometry">
            <mxPoint x="270" y="570" as="sourcePoint" />
          </mxGeometry>
        </mxCell>
        <mxCell id="FdiNI-0ySeMm-yAumP3X-58" value="PRODUKNAAM" style="whiteSpace=wrap;html=1;align=center;" parent="1" vertex="1">
          <mxGeometry x="400" y="600" width="100" height="40" as="geometry" />
        </mxCell>
        <mxCell id="FdiNI-0ySeMm-yAumP3X-66" style="edgeStyle=orthogonalEdgeStyle;rounded=0;orthogonalLoop=1;jettySize=auto;html=1;" parent="1" target="FdiNI-0ySeMm-yAumP3X-59" edge="1">
          <mxGeometry relative="1" as="geometry">
            <mxPoint x="250" y="570" as="sourcePoint" />
          </mxGeometry>
        </mxCell>
        <mxCell id="FdiNI-0ySeMm-yAumP3X-59" value="PRODUK_ID" style="whiteSpace=wrap;html=1;align=center;" parent="1" vertex="1">
          <mxGeometry x="200" y="600" width="100" height="40" as="geometry" />
        </mxCell>
        <mxCell id="FdiNI-0ySeMm-yAumP3X-60" value="" style="endArrow=none;html=1;rounded=0;startFill=0;" parent="1" edge="1">
          <mxGeometry width="50" height="50" relative="1" as="geometry">
            <mxPoint x="100" y="580" as="sourcePoint" />
            <mxPoint x="270" y="570" as="targetPoint" />
            <Array as="points">
              <mxPoint x="100" y="570" />
            </Array>
          </mxGeometry>
        </mxCell>
        <mxCell id="FdiNI-0ySeMm-yAumP3X-63" value="" style="endArrow=none;html=1;rounded=0;exitX=0.5;exitY=0;exitDx=0;exitDy=0;entryX=0.5;entryY=0;entryDx=0;entryDy=0;startFill=0;" parent="1" source="FdiNI-0ySeMm-yAumP3X-65" target="FdiNI-0ySeMm-yAumP3X-64" edge="1">
          <mxGeometry width="50" height="50" relative="1" as="geometry">
            <mxPoint x="70" y="730" as="sourcePoint" />
            <mxPoint x="90" y="700" as="targetPoint" />
            <Array as="points">
              <mxPoint x="50" y="580" />
              <mxPoint x="150" y="580" />
            </Array>
          </mxGeometry>
        </mxCell>
        <mxCell id="FdiNI-0ySeMm-yAumP3X-64" value="&lt;u&gt;KLIENT_ID&lt;/u&gt;" style="whiteSpace=wrap;html=1;align=center;fillColor=#1ba1e2;fontColor=#ffffff;strokeColor=#006EAF;" parent="1" vertex="1">
          <mxGeometry x="100" y="600" width="100" height="40" as="geometry" />
        </mxCell>
        <mxCell id="FdiNI-0ySeMm-yAumP3X-65" value="&lt;u&gt;BESTELLING_ID&lt;/u&gt;" style="whiteSpace=wrap;html=1;align=center;fillColor=#1ba1e2;fontColor=#ffffff;strokeColor=#006EAF;" parent="1" vertex="1">
          <mxGeometry y="600" width="100" height="40" as="geometry" />
        </mxCell>
        <mxCell id="FdiNI-0ySeMm-yAumP3X-67" value="PRODUK(&lt;u&gt;BESTELLING_ID&lt;/u&gt;,&amp;nbsp;&lt;u&gt;KLIENT_ID,&lt;/u&gt;&amp;nbsp;PRODUK_ID, PRODUKNAAM, HOEVEELHEID)" style="text;html=1;align=center;verticalAlign=middle;resizable=0;points=[];autosize=1;strokeColor=none;fillColor=none;" parent="1" vertex="1">
          <mxGeometry x="35" y="680" width="500" height="30" as="geometry" />
        </mxCell>
        <mxCell id="FdiNI-0ySeMm-yAumP3X-69" style="edgeStyle=orthogonalEdgeStyle;rounded=0;orthogonalLoop=1;jettySize=auto;html=1;" parent="1" edge="1">
          <mxGeometry relative="1" as="geometry">
            <mxPoint x="350" y="640" as="targetPoint" />
            <mxPoint x="350" y="680" as="sourcePoint" />
          </mxGeometry>
        </mxCell>
        <mxCell id="FdiNI-0ySeMm-yAumP3X-70" value="" style="endArrow=classic;html=1;rounded=0;exitX=0.5;exitY=1;exitDx=0;exitDy=0;entryX=0.5;entryY=1;entryDx=0;entryDy=0;" parent="1" edge="1">
          <mxGeometry width="50" height="50" relative="1" as="geometry">
            <mxPoint x="250" y="640" as="sourcePoint" />
            <mxPoint x="450" y="640" as="targetPoint" />
            <Array as="points">
              <mxPoint x="250" y="680" />
              <mxPoint x="350" y="680" />
              <mxPoint x="450" y="680" />
            </Array>
          </mxGeometry>
        </mxCell>
        <mxCell id="FdiNI-0ySeMm-yAumP3X-71" value="T" style="edgeLabel;html=1;align=center;verticalAlign=middle;resizable=0;points=[];" parent="FdiNI-0ySeMm-yAumP3X-70" vertex="1" connectable="0">
          <mxGeometry x="-0.3249" y="-1" relative="1" as="geometry">
            <mxPoint as="offset" />
          </mxGeometry>
        </mxCell>
        <mxCell id="FdiNI-0ySeMm-yAumP3X-72" value="&lt;u&gt;KLIENT_ID&lt;/u&gt;" style="whiteSpace=wrap;html=1;align=center;fillColor=#1ba1e2;fontColor=#ffffff;strokeColor=#006EAF;" parent="1" vertex="1">
          <mxGeometry x="20" y="762" width="100" height="40" as="geometry" />
        </mxCell>
        <mxCell id="FdiNI-0ySeMm-yAumP3X-73" style="edgeStyle=orthogonalEdgeStyle;rounded=0;orthogonalLoop=1;jettySize=auto;html=1;" parent="1" target="FdiNI-0ySeMm-yAumP3X-74" edge="1">
          <mxGeometry relative="1" as="geometry">
            <mxPoint x="170.0000000000001" y="732" as="sourcePoint" />
          </mxGeometry>
        </mxCell>
        <mxCell id="FdiNI-0ySeMm-yAumP3X-74" value="KLIENTNAAM" style="whiteSpace=wrap;html=1;align=center;" parent="1" vertex="1">
          <mxGeometry x="120" y="762" width="100" height="40" as="geometry" />
        </mxCell>
        <mxCell id="FdiNI-0ySeMm-yAumP3X-75" style="edgeStyle=orthogonalEdgeStyle;rounded=0;orthogonalLoop=1;jettySize=auto;html=1;" parent="1" target="FdiNI-0ySeMm-yAumP3X-76" edge="1">
          <mxGeometry relative="1" as="geometry">
            <mxPoint x="270" y="732" as="sourcePoint" />
          </mxGeometry>
        </mxCell>
        <mxCell id="FdiNI-0ySeMm-yAumP3X-76" value="KLIENTTEL" style="whiteSpace=wrap;html=1;align=center;" parent="1" vertex="1">
          <mxGeometry x="220" y="762" width="100" height="40" as="geometry" />
        </mxCell>
        <mxCell id="FdiNI-0ySeMm-yAumP3X-77" value="" style="endArrow=none;html=1;rounded=0;exitX=0.5;exitY=0;exitDx=0;exitDy=0;startFill=0;" parent="1" source="FdiNI-0ySeMm-yAumP3X-72" edge="1">
          <mxGeometry width="50" height="50" relative="1" as="geometry">
            <mxPoint y="902" as="sourcePoint" />
            <mxPoint x="270" y="732" as="targetPoint" />
            <Array as="points">
              <mxPoint x="70" y="732" />
            </Array>
          </mxGeometry>
        </mxCell>
        <mxCell id="FdiNI-0ySeMm-yAumP3X-78" value="3NF:" style="text;html=1;align=center;verticalAlign=middle;resizable=0;points=[];autosize=1;strokeColor=none;fillColor=none;" parent="1" vertex="1">
          <mxGeometry y="720" width="50" height="30" as="geometry" />
        </mxCell>
        <mxCell id="FdiNI-0ySeMm-yAumP3X-79" value="KLIENT(&lt;u&gt;KLIENT_ID&lt;/u&gt;, KLIENTNAAM, KLIENTTEL)" style="text;html=1;align=center;verticalAlign=middle;resizable=0;points=[];autosize=1;strokeColor=none;fillColor=none;" parent="1" vertex="1">
          <mxGeometry x="320" y="762" width="290" height="30" as="geometry" />
        </mxCell>
        <mxCell id="FdiNI-0ySeMm-yAumP3X-80" style="edgeStyle=orthogonalEdgeStyle;rounded=0;orthogonalLoop=1;jettySize=auto;html=1;" parent="1" target="FdiNI-0ySeMm-yAumP3X-81" edge="1">
          <mxGeometry relative="1" as="geometry">
            <mxPoint x="170.0000000000001" y="812" as="sourcePoint" />
          </mxGeometry>
        </mxCell>
        <mxCell id="FdiNI-0ySeMm-yAumP3X-81" value="DATUM" style="whiteSpace=wrap;html=1;align=center;" parent="1" vertex="1">
          <mxGeometry x="120" y="842" width="100" height="40" as="geometry" />
        </mxCell>
        <mxCell id="FdiNI-0ySeMm-yAumP3X-82" value="&lt;u&gt;BESTELLING_ID&lt;/u&gt;" style="whiteSpace=wrap;html=1;align=center;fillColor=#1ba1e2;fontColor=#ffffff;strokeColor=#006EAF;" parent="1" vertex="1">
          <mxGeometry x="20" y="842" width="100" height="40" as="geometry" />
        </mxCell>
        <mxCell id="FdiNI-0ySeMm-yAumP3X-83" value="" style="endArrow=none;html=1;rounded=0;exitX=0.5;exitY=0;exitDx=0;exitDy=0;startFill=0;" parent="1" edge="1">
          <mxGeometry width="50" height="50" relative="1" as="geometry">
            <mxPoint x="70" y="842" as="sourcePoint" />
            <mxPoint x="170" y="812" as="targetPoint" />
            <Array as="points">
              <mxPoint x="70" y="812" />
            </Array>
          </mxGeometry>
        </mxCell>
        <mxCell id="FdiNI-0ySeMm-yAumP3X-84" value="BESTELLING(&lt;u&gt;BESTELLING_ID&lt;/u&gt;, DATUM)" style="text;html=1;align=center;verticalAlign=middle;resizable=0;points=[];autosize=1;strokeColor=none;fillColor=none;" parent="1" vertex="1">
          <mxGeometry x="235" y="847" width="250" height="30" as="geometry" />
        </mxCell>
        <mxCell id="FdiNI-0ySeMm-yAumP3X-85" style="edgeStyle=orthogonalEdgeStyle;rounded=0;orthogonalLoop=1;jettySize=auto;html=1;" parent="1" target="FdiNI-0ySeMm-yAumP3X-86" edge="1">
          <mxGeometry relative="1" as="geometry">
            <mxPoint x="170.0000000000001" y="892" as="sourcePoint" />
          </mxGeometry>
        </mxCell>
        <mxCell id="FdiNI-0ySeMm-yAumP3X-86" value="HOEVEELHEID" style="whiteSpace=wrap;html=1;align=center;" parent="1" vertex="1">
          <mxGeometry x="120" y="922" width="100" height="40" as="geometry" />
        </mxCell>
        <mxCell id="FdiNI-0ySeMm-yAumP3X-87" style="edgeStyle=orthogonalEdgeStyle;rounded=0;orthogonalLoop=1;jettySize=auto;html=1;" parent="1" target="FdiNI-0ySeMm-yAumP3X-88" edge="1">
          <mxGeometry relative="1" as="geometry">
            <mxPoint x="270" y="892" as="sourcePoint" />
          </mxGeometry>
        </mxCell>
        <mxCell id="FdiNI-0ySeMm-yAumP3X-88" value="PRODUKNAAM" style="whiteSpace=wrap;html=1;align=center;" parent="1" vertex="1">
          <mxGeometry x="220" y="922" width="100" height="40" as="geometry" />
        </mxCell>
        <mxCell id="FdiNI-0ySeMm-yAumP3X-90" value="&lt;u&gt;PRODUK_ID&lt;/u&gt;" style="whiteSpace=wrap;html=1;align=center;fillColor=#1ba1e2;fontColor=#ffffff;strokeColor=#006EAF;" parent="1" vertex="1">
          <mxGeometry x="20" y="922" width="100" height="40" as="geometry" />
        </mxCell>
        <mxCell id="FdiNI-0ySeMm-yAumP3X-91" value="" style="endArrow=none;html=1;rounded=0;startFill=0;exitX=0.5;exitY=0;exitDx=0;exitDy=0;" parent="1" source="FdiNI-0ySeMm-yAumP3X-90" edge="1">
          <mxGeometry width="50" height="50" relative="1" as="geometry">
            <mxPoint x="100" y="902" as="sourcePoint" />
            <mxPoint x="270" y="892" as="targetPoint" />
            <Array as="points">
              <mxPoint x="70" y="892" />
            </Array>
          </mxGeometry>
        </mxCell>
        <mxCell id="FdiNI-0ySeMm-yAumP3X-95" value="PRODUK(&lt;u&gt;PRODUK_ID&lt;/u&gt;, PRODUKNAAM, HOEVEELHEID)" style="text;html=1;align=center;verticalAlign=middle;resizable=0;points=[];autosize=1;strokeColor=none;fillColor=none;" parent="1" vertex="1">
          <mxGeometry x="320" y="922" width="340" height="30" as="geometry" />
        </mxCell>
      </root>
    </mxGraphModel>
  </diagram>
</mxfile>
